<svg width="308" height="421" viewBox="0 0 308 421" fill="none" xmlns="http://www.w3.org/2000/svg">
<path d="M0.0258408 373.039L11.4289 61.4033C11.8361 50.1592 17.008 39.4219 25.9866 31.1799C34.9653 22.938 47.1424 17.7499 60.2626 16.5765L242.812 0.252658C250.35 -0.419966 257.97 0.253991 265.186 2.23155C272.401 4.20911 279.055 7.44692 284.722 11.7386C290.389 16.0302 294.946 21.2817 298.101 27.1581C301.256 33.0345 302.941 39.407 303.049 45.8695L307.995 348.827C308.178 360.1 303.554 371.047 294.984 379.632C286.413 388.216 274.479 393.856 261.399 395.501L62.5148 420.503C54.6208 421.495 46.5679 420.998 38.9236 419.048C31.2793 417.097 24.2296 413.741 18.2714 409.215C12.3132 404.69 7.59152 399.105 4.43907 392.854C1.28661 386.604 -0.219828 379.84 0.0258408 373.039Z" fill="#F4F4FF"/>
</svg>
