<svg width="20" height="14" viewBox="0 0 20 14" fill="none" xmlns="http://www.w3.org/2000/svg">
<g id="Icon">
<path id="Vector" d="M19.6111 12.3499C19.5548 12.5191 19.5036 12.6832 19.4525 12.8371C17.4724 10.8626 15.5025 8.90353 13.5275 6.9393C15.5127 4.96482 17.4826 3.00573 19.4627 1.0415C19.5036 1.16459 19.5599 1.33383 19.6111 1.50307C19.6111 5.11868 19.6111 8.73428 19.6111 12.3499Z" fill="url(#paint0_linear_320_810)"/>
<path id="Vector_2" d="M0.990826 0.144419C1.22107 0.0931339 1.42062 0.0469772 1.61504 0.0110776C1.67644 -0.00430796 1.74296 0.000820563 1.80436 0.000820563C7.13067 0.000820563 12.4621 0.000820563 17.7884 0.00594908C18.0494 0.00594908 18.3103 0.0726198 18.5713 0.108519C18.5764 0.134162 18.5764 0.154676 18.5815 0.180319C18.5354 0.226475 18.4894 0.277761 18.4433 0.323917C15.7469 3.0369 13.0556 5.75502 10.3592 8.46801C9.9857 8.84752 9.62243 8.84752 9.24892 8.47314C6.55251 5.75502 3.85097 3.0369 1.15455 0.318789C1.10851 0.272632 1.06757 0.226475 0.990826 0.144419Z" fill="url(#paint1_linear_320_810)"/>
<path id="Vector_3" d="M12.6725 7.79639C14.6475 9.76061 16.6122 11.7146 18.6179 13.7096C18.3825 13.7609 18.1932 13.807 17.9937 13.8429C17.9169 13.8583 17.8402 13.848 17.7634 13.848C12.4525 13.848 7.14662 13.848 1.83565 13.848C1.55424 13.848 1.28307 13.8224 1.00677 13.6788C2.98688 11.7095 4.95163 9.75548 6.93173 7.78613C6.9522 7.80152 6.99824 7.84767 7.04941 7.89383C7.52013 8.36566 7.98574 8.83748 8.45646 9.3093C9.24952 10.1042 10.3496 10.1042 11.1426 9.3093C11.6645 8.79645 12.1813 8.2836 12.6725 7.79639Z" fill="url(#paint2_linear_320_810)"/>
<path id="Vector_4" d="M0.131629 12.8371C0.0906965 12.6166 0.00371533 12.3807 0.00371533 12.1448C-0.00140121 8.66762 -0.00140121 5.19049 0.00371533 1.70822C0.00371533 1.47231 0.08558 1.2364 0.131629 1.01074C2.12708 2.99548 4.09695 4.9597 6.07705 6.92906C4.10206 8.88815 2.1322 10.8472 0.131629 12.8371Z" fill="url(#paint3_linear_320_810)"/>
</g>
<defs>
<linearGradient id="paint0_linear_320_810" x1="13.526" y1="6.93283" x2="19.6145" y2="6.93283" gradientUnits="userSpaceOnUse">
<stop stop-color="#FE651B"/>
<stop offset="1" stop-color="#FFAA52"/>
</linearGradient>
<linearGradient id="paint1_linear_320_810" x1="0.986481" y1="4.37184" x2="18.5914" y2="4.37184" gradientUnits="userSpaceOnUse">
<stop stop-color="#FE651B"/>
<stop offset="1" stop-color="#FFAA52"/>
</linearGradient>
<linearGradient id="paint2_linear_320_810" x1="1.00243" y1="10.8154" x2="18.6278" y2="10.8154" gradientUnits="userSpaceOnUse">
<stop stop-color="#FE651B"/>
<stop offset="1" stop-color="#FFAA52"/>
</linearGradient>
<linearGradient id="paint3_linear_320_810" x1="-0.00162288" y1="6.91744" x2="6.08047" y2="6.91744" gradientUnits="userSpaceOnUse">
<stop stop-color="#FE651B"/>
<stop offset="1" stop-color="#FFAA52"/>
</linearGradient>
</defs>
</svg>
