<svg width="20" height="20" viewBox="0 0 20 20" fill="none" xmlns="http://www.w3.org/2000/svg">
<g id="Icon">
<path id="Vector" d="M6.68751 1.33348C6.98827 1.45509 7.2736 1.59785 7.4888 1.85153C7.51835 1.88814 7.5524 1.92154 7.57809 1.9575C8.16903 2.78457 8.76447 3.60844 9.35091 4.43872C9.7864 5.05773 9.75324 5.80004 9.28566 6.34296C9.07406 6.58846 8.80659 6.74151 8.48774 6.79889C8.02553 6.8837 7.64554 7.09308 7.38437 7.49251C7.21261 7.76051 7.14433 8.04981 7.17438 8.36744C7.25366 9.19586 7.57789 9.93473 8.0082 10.632C8.522 11.4699 9.14705 12.2117 9.95409 12.79C10.2901 13.0323 10.6423 13.2496 11.0762 13.2629C11.6482 13.2796 12.1221 13.078 12.4308 12.5837C12.6322 12.2573 12.8618 11.9753 13.2347 11.832C13.8403 11.601 14.5312 11.7603 14.9334 12.2708C15.2995 12.7358 15.6374 13.2276 15.9804 13.7125C16.2951 14.153 16.6272 14.5845 16.9104 15.0474C17.2695 15.6259 17.1482 16.4208 16.6672 16.9021C16.5675 17.0001 16.4607 17.093 16.3482 17.1731C15.8614 17.5229 15.365 17.8592 14.884 18.2218C14.3716 18.6068 13.802 18.7172 13.1843 18.6414C12.5204 18.5579 11.9163 18.3063 11.3341 17.9951C10.1883 17.3798 9.19947 16.5613 8.2859 15.6485C6.77163 14.1326 5.50686 12.4289 4.48964 10.5491C3.73829 9.16493 3.13995 7.71933 2.88235 6.1567C2.77021 5.4771 2.73071 4.78989 2.88082 4.10673C3.01225 3.51146 3.29726 3.0171 3.81938 2.66929C4.25726 2.37464 4.68487 2.07036 5.10669 1.75324C5.47836 1.47519 5.86736 1.25941 6.34815 1.27664C6.45999 1.29537 6.57182 1.3141 6.68751 1.33348Z" fill="url(#paint0_linear_320_805)"/>
</g>
<defs>
<linearGradient id="paint0_linear_320_805" x1="2.1075" y1="8.66884" x2="17.9004" y2="11.3143" gradientUnits="userSpaceOnUse">
<stop stop-color="#FE651B"/>
<stop offset="1" stop-color="#FFAA52"/>
</linearGradient>
</defs>
</svg>
